solid arch
   facet normal -1.000000e+000 0.000000e+000 0.000000e+000
      outer loop
         vertex 0.000000e+000 0.000000e+000 3.500000e+001
         vertex 0.000000e+000 7.000000e+001 3.500000e+001
         vertex 0.000000e+000 0.000000e+000 0.000000e+000
      endloop
   endfacet
   facet normal -1.000000e+000 0.000000e+000 0.000000e+000
      outer loop
         vertex 0.000000e+000 0.000000e+000 0.000000e+000
         vertex 0.000000e+000 7.000000e+001 3.500000e+001
         vertex 0.000000e+000 7.000000e+001 0.000000e+000
      endloop
   endfacet
   facet normal 0.000000e+000 -1.000000e+000 0.000000e+000
      outer loop
         vertex 1.400000e+002 0.000000e+000 3.500000e+001
         vertex 0.000000e+000 0.000000e+000 3.500000e+001
         vertex 1.400000e+002 0.000000e+000 0.000000e+000
      endloop
   endfacet
   facet normal 0.000000e+000 -1.000000e+000 0.000000e+000
      outer loop
         vertex 1.400000e+002 0.000000e+000 0.000000e+000
         vertex 0.000000e+000 0.000000e+000 3.500000e+001
         vertex 0.000000e+000 0.000000e+000 0.000000e+000
      endloop
   endfacet
   facet normal 1.000000e+000 0.000000e+000 0.000000e+000
      outer loop
         vertex 1.400000e+002 7.000000e+001 3.500000e+001
         vertex 1.400000e+002 0.000000e+000 3.500000e+001
         vertex 1.400000e+002 7.000000e+001 0.000000e+000
      endloop
   endfacet
   facet normal 1.000000e+000 0.000000e+000 0.000000e+000
      outer loop
         vertex 1.400000e+002 7.000000e+001 0.000000e+000
         vertex 1.400000e+002 0.000000e+000 3.500000e+001
         vertex 1.400000e+002 0.000000e+000 0.000000e+000
      endloop
   endfacet
   facet normal 0.000000e+000 1.000000e+000 0.000000e+000
      outer loop
         vertex 1.050000e+002 7.000000e+001 3.500000e+001
         vertex 1.400000e+002 7.000000e+001 3.500000e+001
         vertex 1.050000e+002 7.000000e+001 0.000000e+000
      endloop
   endfacet
   facet normal 0.000000e+000 1.000000e+000 0.000000e+000
      outer loop
         vertex 1.050000e+002 7.000000e+001 0.000000e+000
         vertex 1.400000e+002 7.000000e+001 3.500000e+001
         vertex 1.400000e+002 7.000000e+001 0.000000e+000
      endloop
   endfacet
   facet normal -9.991238e-001 4.185114e-002 0.000000e+000
      outer loop
         vertex 1.050000e+002 7.000000e+001 3.500000e+001
         vertex 1.050000e+002 7.000000e+001 0.000000e+000
         vertex 1.047240e+002 6.561333e+001 0.000000e+000
      endloop
   endfacet
   facet normal -9.964908e-001 8.370229e-002 0.000000e+000
      outer loop
         vertex 1.050000e+002 7.000000e+001 3.500000e+001
         vertex 1.047240e+002 6.561333e+001 0.000000e+000
         vertex 1.047240e+002 6.561333e+001 3.500000e+001
      endloop
   endfacet
   facet normal -9.860001e-001 1.667446e-001 0.000000e+000
      outer loop
         vertex 1.047240e+002 6.561333e+001 3.500000e+001
         vertex 1.047240e+002 6.561333e+001 0.000000e+000
         vertex 1.039004e+002 6.129586e+001 0.000000e+000
      endloop
   endfacet
   facet normal -9.781425e-001 2.079357e-001 0.000000e+000
      outer loop
         vertex 1.047240e+002 6.561333e+001 3.500000e+001
         vertex 1.039004e+002 6.129586e+001 0.000000e+000
         vertex 1.039004e+002 6.129586e+001 3.500000e+001
      endloop
   endfacet
   facet normal -9.573266e-001 2.890083e-001 0.000000e+000
      outer loop
         vertex 1.039004e+002 6.129586e+001 3.500000e+001
         vertex 1.039004e+002 6.129586e+001 0.000000e+000
         vertex 1.025422e+002 5.711564e+001 0.000000e+000
      endloop
   endfacet
   facet normal -9.443683e-001 3.288898e-001 0.000000e+000
      outer loop
         vertex 1.039004e+002 6.129586e+001 3.500000e+001
         vertex 1.025422e+002 5.711564e+001 0.000000e+000
         vertex 1.025422e+002 5.711564e+001 3.500000e+001
      endloop
   endfacet
   facet normal -9.135554e-001 4.067142e-001 0.000000e+000
      outer loop
         vertex 1.025422e+002 5.711564e+001 3.500000e+001
         vertex 1.025422e+002 5.711564e+001 0.000000e+000
         vertex 1.006707e+002 5.313862e+001 0.000000e+000
      endloop
   endfacet
   facet normal -8.957008e-001 4.446571e-001 0.000000e+000
      outer loop
         vertex 1.025422e+002 5.711564e+001 3.500000e+001
         vertex 1.006707e+002 5.313862e+001 0.000000e+000
         vertex 1.006707e+002 5.313862e+001 3.500000e+001
      endloop
   endfacet
   facet normal -8.553770e-001 5.180060e-001 0.000000e+000
      outer loop
         vertex 1.006707e+002 5.313862e+001 3.500000e+001
         vertex 1.006707e+002 5.313862e+001 0.000000e+000
         vertex 9.831560e+001 4.942752e+001 0.000000e+000
      endloop
   endfacet
   facet normal -8.329076e-001 5.534120e-001 0.000000e+000
      outer loop
         vertex 1.006707e+002 5.313862e+001 3.500000e+001
         vertex 9.831560e+001 4.942752e+001 0.000000e+000
         vertex 9.831560e+001 4.942752e+001 3.500000e+001
      endloop
   endfacet
   facet normal -7.837087e-001 6.211286e-001 0.000000e+000
      outer loop
         vertex 9.831560e+001 4.942752e+001 3.500000e+001
         vertex 9.831560e+001 4.942752e+001 0.000000e+000
         vertex 9.551390e+001 4.604085e+001 0.000000e+000
      endloop
   endfacet
   facet normal -7.569790e-001 6.534392e-001 0.000000e+000
      outer loop
         vertex 9.831560e+001 4.942752e+001 3.500000e+001
         vertex 9.551390e+001 4.604085e+001 0.000000e+000
         vertex 9.551390e+001 4.604085e+001 3.500000e+001
      endloop
   endfacet
   facet normal -6.996809e-001 7.144555e-001 0.000000e+000
      outer loop
         vertex 9.551390e+001 4.604085e+001 3.500000e+001
         vertex 9.551390e+001 4.604085e+001 0.000000e+000
         vertex 9.230984e+001 4.303204e+001 0.000000e+000
      endloop
   endfacet
   facet normal -6.691124e-001 7.431613e-001 0.000000e+000
      outer loop
         vertex 9.551390e+001 4.604085e+001 3.500000e+001
         vertex 9.230984e+001 4.303204e+001 0.000000e+000
         vertex 9.230984e+001 4.303204e+001 3.500000e+001
      endloop
   endfacet
   facet normal -6.046186e-001 7.965151e-001 0.000000e+000
      outer loop
         vertex 9.230984e+001 4.303204e+001 3.500000e+001
         vertex 9.230984e+001 4.303204e+001 0.000000e+000
         vertex 8.875394e+001 4.044852e+001 0.000000e+000
      endloop
   endfacet
   facet normal -5.706934e-001 8.211632e-001 0.000000e+000
      outer loop
         vertex 9.230984e+001 4.303204e+001 3.500000e+001
         vertex 8.875394e+001 4.044852e+001 0.000000e+000
         vertex 8.875394e+001 4.044852e+001 3.500000e+001
      endloop
   endfacet
   facet normal -5.000213e-001 8.660132e-001 0.000000e+000
      outer loop
         vertex 8.875394e+001 4.044852e+001 3.500000e+001
         vertex 8.875394e+001 4.044852e+001 0.000000e+000
         vertex 8.490228e+001 3.833105e+001 0.000000e+000
      endloop
   endfacet
   facet normal -4.632743e-001 8.862150e-001 0.000000e+000
      outer loop
         vertex 8.875394e+001 4.044852e+001 3.500000e+001
         vertex 8.490228e+001 3.833105e+001 0.000000e+000
         vertex 8.490228e+001 3.833105e+001 3.500000e+001
      endloop
   endfacet
   facet normal -3.875382e-001 9.218537e-001 0.000000e+000
      outer loop
         vertex 8.490228e+001 3.833105e+001 3.500000e+001
         vertex 8.490228e+001 3.833105e+001 0.000000e+000
         vertex 8.081560e+001 3.671302e+001 0.000000e+000
      endloop
   endfacet
   facet normal -3.485490e-001 9.372905e-001 0.000000e+000
      outer loop
         vertex 8.490228e+001 3.833105e+001 3.500000e+001
         vertex 8.081560e+001 3.671302e+001 0.000000e+000
         vertex 8.081560e+001 3.671302e+001 3.500000e+001
      endloop
   endfacet
   facet normal -2.689435e-001 9.631560e-001 0.000000e+000
      outer loop
         vertex 8.081560e+001 3.671302e+001 3.500000e+001
         vertex 8.081560e+001 3.671302e+001 0.000000e+000
         vertex 7.655834e+001 3.561995e+001 0.000000e+000
      endloop
   endfacet
   facet normal -2.283270e-001 9.735845e-001 0.000000e+000
      outer loop
         vertex 8.081560e+001 3.671302e+001 3.500000e+001
         vertex 7.655834e+001 3.561995e+001 0.000000e+000
         vertex 7.655834e+001 3.561995e+001 3.500000e+001
      endloop
   endfacet
   facet normal -1.461073e-001 9.892687e-001 0.000000e+000
      outer loop
         vertex 7.655834e+001 3.561995e+001 3.500000e+001
         vertex 7.655834e+001 3.561995e+001 0.000000e+000
         vertex 7.219767e+001 3.506907e+001 0.000000e+000
      endloop
   endfacet
   facet normal -1.045041e-001 9.945244e-001 0.000000e+000
      outer loop
         vertex 7.655834e+001 3.561995e+001 3.500000e+001
         vertex 7.219767e+001 3.506907e+001 0.000000e+000
         vertex 7.219767e+001 3.506907e+001 3.500000e+001
      endloop
   endfacet
   facet normal -2.096695e-002 9.997802e-001 0.000000e+000
      outer loop
         vertex 7.219767e+001 3.506907e+001 3.500000e+001
         vertex 7.219767e+001 3.506907e+001 0.000000e+000
         vertex 6.780233e+001 3.506907e+001 0.000000e+000
      endloop
   endfacet
   facet normal 2.096695e-002 9.997802e-001 0.000000e+000
      outer loop
         vertex 7.219767e+001 3.506907e+001 3.500000e+001
         vertex 6.780233e+001 3.506907e+001 0.000000e+000
         vertex 6.780233e+001 3.506907e+001 3.500000e+001
      endloop
   endfacet
   facet normal 1.045041e-001 9.945244e-001 0.000000e+000
      outer loop
         vertex 6.780233e+001 3.506907e+001 3.500000e+001
         vertex 6.780233e+001 3.506907e+001 0.000000e+000
         vertex 6.344166e+001 3.561995e+001 0.000000e+000
      endloop
   endfacet
   facet normal 1.461073e-001 9.892687e-001 0.000000e+000
      outer loop
         vertex 6.780233e+001 3.506907e+001 3.500000e+001
         vertex 6.344166e+001 3.561995e+001 0.000000e+000
         vertex 6.344166e+001 3.561995e+001 3.500000e+001
      endloop
   endfacet
   facet normal 2.283270e-001 9.735845e-001 0.000000e+000
      outer loop
         vertex 6.344166e+001 3.561995e+001 3.500000e+001
         vertex 6.344166e+001 3.561995e+001 0.000000e+000
         vertex 5.918441e+001 3.671302e+001 0.000000e+000
      endloop
   endfacet
   facet normal 2.689435e-001 9.631560e-001 0.000000e+000
      outer loop
         vertex 6.344166e+001 3.561995e+001 3.500000e+001
         vertex 5.918441e+001 3.671302e+001 0.000000e+000
         vertex 5.918441e+001 3.671302e+001 3.500000e+001
      endloop
   endfacet
   facet normal 3.485490e-001 9.372905e-001 0.000000e+000
      outer loop
         vertex 5.918441e+001 3.671302e+001 3.500000e+001
         vertex 5.918441e+001 3.671302e+001 0.000000e+000
         vertex 5.509772e+001 3.833105e+001 0.000000e+000
      endloop
   endfacet
   facet normal 3.875382e-001 9.218537e-001 0.000000e+000
      outer loop
         vertex 5.918441e+001 3.671302e+001 3.500000e+001
         vertex 5.509772e+001 3.833105e+001 0.000000e+000
         vertex 5.509772e+001 3.833105e+001 3.500000e+001
      endloop
   endfacet
   facet normal 4.632743e-001 8.862150e-001 0.000000e+000
      outer loop
         vertex 5.509772e+001 3.833105e+001 3.500000e+001
         vertex 5.509772e+001 3.833105e+001 0.000000e+000
         vertex 5.124606e+001 4.044852e+001 0.000000e+000
      endloop
   endfacet
   facet normal 5.000213e-001 8.660132e-001 0.000000e+000
      outer loop
         vertex 5.509772e+001 3.833105e+001 3.500000e+001
         vertex 5.124606e+001 4.044852e+001 0.000000e+000
         vertex 5.124606e+001 4.044852e+001 3.500000e+001
      endloop
   endfacet
   facet normal 5.706934e-001 8.211632e-001 0.000000e+000
      outer loop
         vertex 5.124606e+001 4.044852e+001 3.500000e+001
         vertex 5.124606e+001 4.044852e+001 0.000000e+000
         vertex 4.769016e+001 4.303204e+001 0.000000e+000
      endloop
   endfacet
   facet normal 6.046186e-001 7.965151e-001 0.000000e+000
      outer loop
         vertex 5.124606e+001 4.044852e+001 3.500000e+001
         vertex 4.769016e+001 4.303204e+001 0.000000e+000
         vertex 4.769016e+001 4.303204e+001 3.500000e+001
      endloop
   endfacet
   facet normal 6.691124e-001 7.431613e-001 0.000000e+000
      outer loop
         vertex 4.769016e+001 4.303204e+001 3.500000e+001
         vertex 4.769016e+001 4.303204e+001 0.000000e+000
         vertex 4.448610e+001 4.604085e+001 0.000000e+000
      endloop
   endfacet
   facet normal 6.996809e-001 7.144555e-001 0.000000e+000
      outer loop
         vertex 4.769016e+001 4.303204e+001 3.500000e+001
         vertex 4.448610e+001 4.604085e+001 0.000000e+000
         vertex 4.448610e+001 4.604085e+001 3.500000e+001
      endloop
   endfacet
   facet normal 7.569790e-001 6.534392e-001 0.000000e+000
      outer loop
         vertex 4.448610e+001 4.604085e+001 3.500000e+001
         vertex 4.448610e+001 4.604085e+001 0.000000e+000
         vertex 4.168440e+001 4.942752e+001 0.000000e+000
      endloop
   endfacet
   facet normal 7.837087e-001 6.211286e-001 0.000000e+000
      outer loop
         vertex 4.448610e+001 4.604085e+001 3.500000e+001
         vertex 4.168440e+001 4.942752e+001 0.000000e+000
         vertex 4.168440e+001 4.942752e+001 3.500000e+001
      endloop
   endfacet
   facet normal 8.329076e-001 5.534120e-001 0.000000e+000
      outer loop
         vertex 4.168440e+001 4.942752e+001 3.500000e+001
         vertex 4.168440e+001 4.942752e+001 0.000000e+000
         vertex 3.932927e+001 5.313862e+001 0.000000e+000
      endloop
   endfacet
   facet normal 8.553770e-001 5.180060e-001 0.000000e+000
      outer loop
         vertex 4.168440e+001 4.942752e+001 3.500000e+001
         vertex 3.932927e+001 5.313862e+001 0.000000e+000
         vertex 3.932927e+001 5.313862e+001 3.500000e+001
      endloop
   endfacet
   facet normal 8.957008e-001 4.446571e-001 0.000000e+000
      outer loop
         vertex 3.932927e+001 5.313862e+001 3.500000e+001
         vertex 3.932927e+001 5.313862e+001 0.000000e+000
         vertex 3.745782e+001 5.711564e+001 0.000000e+000
      endloop
   endfacet
   facet normal 9.135554e-001 4.067142e-001 0.000000e+000
      outer loop
         vertex 3.932927e+001 5.313862e+001 3.500000e+001
         vertex 3.745782e+001 5.711564e+001 0.000000e+000
         vertex 3.745782e+001 5.711564e+001 3.500000e+001
      endloop
   endfacet
   facet normal 9.443683e-001 3.288898e-001 0.000000e+000
      outer loop
         vertex 3.745782e+001 5.711564e+001 3.500000e+001
         vertex 3.745782e+001 5.711564e+001 0.000000e+000
         vertex 3.609959e+001 6.129586e+001 0.000000e+000
      endloop
   endfacet
   facet normal 9.573266e-001 2.890083e-001 0.000000e+000
      outer loop
         vertex 3.745782e+001 5.711564e+001 3.500000e+001
         vertex 3.609959e+001 6.129586e+001 0.000000e+000
         vertex 3.609959e+001 6.129586e+001 3.500000e+001
      endloop
   endfacet
   facet normal 9.781425e-001 2.079357e-001 0.000000e+000
      outer loop
         vertex 3.609959e+001 6.129586e+001 3.500000e+001
         vertex 3.609959e+001 6.129586e+001 0.000000e+000
         vertex 3.527599e+001 6.561333e+001 0.000000e+000
      endloop
   endfacet
   facet normal 9.860001e-001 1.667446e-001 0.000000e+000
      outer loop
         vertex 3.609959e+001 6.129586e+001 3.500000e+001
         vertex 3.527599e+001 6.561333e+001 0.000000e+000
         vertex 3.527599e+001 6.561333e+001 3.500000e+001
      endloop
   endfacet
   facet normal 9.964908e-001 8.370229e-002 0.000000e+000
      outer loop
         vertex 3.527599e+001 6.561333e+001 3.500000e+001
         vertex 3.527599e+001 6.561333e+001 0.000000e+000
         vertex 3.500000e+001 7.000000e+001 0.000000e+000
      endloop
   endfacet
   facet normal 9.991238e-001 4.185114e-002 0.000000e+000
      outer loop
         vertex 3.527599e+001 6.561333e+001 3.500000e+001
         vertex 3.500000e+001 7.000000e+001 0.000000e+000
         vertex 3.500000e+001 7.000000e+001 3.500000e+001
      endloop
   endfacet
   facet normal 0.000000e+000 1.000000e+000 0.000000e+000
      outer loop
         vertex 0.000000e+000 7.000000e+001 3.500000e+001
         vertex 3.500000e+001 7.000000e+001 3.500000e+001
         vertex 0.000000e+000 7.000000e+001 0.000000e+000
      endloop
   endfacet
   facet normal 0.000000e+000 1.000000e+000 0.000000e+000
      outer loop
         vertex 0.000000e+000 7.000000e+001 0.000000e+000
         vertex 3.500000e+001 7.000000e+001 3.500000e+001
         vertex 3.500000e+001 7.000000e+001 0.000000e+000
      endloop
   endfacet
   facet normal 0.000000e+000 0.000000e+000 1.000000e+000
      outer loop
         vertex 9.831560e+001 4.942752e+001 3.500000e+001
         vertex 9.551390e+001 4.604085e+001 3.500000e+001
         vertex 1.400000e+002 0.000000e+000 3.500000e+001
      endloop
   endfacet
   facet normal 0.000000e+000 0.000000e+000 1.000000e+000
      outer loop
         vertex 3.500000e+001 7.000000e+001 3.500000e+001
         vertex 0.000000e+000 7.000000e+001 3.500000e+001
         vertex 3.527599e+001 6.561333e+001 3.500000e+001
      endloop
   endfacet
   facet normal 0.000000e+000 0.000000e+000 1.000000e+000
      outer loop
         vertex 3.527599e+001 6.561333e+001 3.500000e+001
         vertex 0.000000e+000 7.000000e+001 3.500000e+001
         vertex 3.609959e+001 6.129586e+001 3.500000e+001
      endloop
   endfacet
   facet normal 0.000000e+000 0.000000e+000 1.000000e+000
      outer loop
         vertex 9.831560e+001 4.942752e+001 3.500000e+001
         vertex 1.400000e+002 0.000000e+000 3.500000e+001
         vertex 1.006707e+002 5.313862e+001 3.500000e+001
      endloop
   endfacet
   facet normal 0.000000e+000 0.000000e+000 1.000000e+000
      outer loop
         vertex 1.050000e+002 7.000000e+001 3.500000e+001
         vertex 1.047240e+002 6.561333e+001 3.500000e+001
         vertex 1.400000e+002 7.000000e+001 3.500000e+001
      endloop
   endfacet
   facet normal 0.000000e+000 0.000000e+000 1.000000e+000
      outer loop
         vertex 1.400000e+002 7.000000e+001 3.500000e+001
         vertex 1.047240e+002 6.561333e+001 3.500000e+001
         vertex 1.039004e+002 6.129586e+001 3.500000e+001
      endloop
   endfacet
   facet normal 0.000000e+000 0.000000e+000 1.000000e+000
      outer loop
         vertex 1.400000e+002 7.000000e+001 3.500000e+001
         vertex 1.039004e+002 6.129586e+001 3.500000e+001
         vertex 1.400000e+002 0.000000e+000 3.500000e+001
      endloop
   endfacet
   facet normal 0.000000e+000 0.000000e+000 1.000000e+000
      outer loop
         vertex 1.400000e+002 0.000000e+000 3.500000e+001
         vertex 1.039004e+002 6.129586e+001 3.500000e+001
         vertex 1.025422e+002 5.711564e+001 3.500000e+001
      endloop
   endfacet
   facet normal 0.000000e+000 0.000000e+000 1.000000e+000
      outer loop
         vertex 1.400000e+002 0.000000e+000 3.500000e+001
         vertex 1.025422e+002 5.711564e+001 3.500000e+001
         vertex 1.006707e+002 5.313862e+001 3.500000e+001
      endloop
   endfacet
   facet normal 0.000000e+000 0.000000e+000 1.000000e+000
      outer loop
         vertex 0.000000e+000 0.000000e+000 3.500000e+001
         vertex 1.400000e+002 0.000000e+000 3.500000e+001
         vertex 7.219767e+001 3.506907e+001 3.500000e+001
      endloop
   endfacet
   facet normal 0.000000e+000 0.000000e+000 1.000000e+000
      outer loop
         vertex 3.609959e+001 6.129586e+001 3.500000e+001
         vertex 0.000000e+000 7.000000e+001 3.500000e+001
         vertex 3.745782e+001 5.711564e+001 3.500000e+001
      endloop
   endfacet
   facet normal 0.000000e+000 0.000000e+000 1.000000e+000
      outer loop
         vertex 3.745782e+001 5.711564e+001 3.500000e+001
         vertex 0.000000e+000 7.000000e+001 3.500000e+001
         vertex 0.000000e+000 0.000000e+000 3.500000e+001
      endloop
   endfacet
   facet normal 0.000000e+000 0.000000e+000 1.000000e+000
      outer loop
         vertex 3.745782e+001 5.711564e+001 3.500000e+001
         vertex 0.000000e+000 0.000000e+000 3.500000e+001
         vertex 3.932927e+001 5.313862e+001 3.500000e+001
      endloop
   endfacet
   facet normal 0.000000e+000 0.000000e+000 1.000000e+000
      outer loop
         vertex 7.219767e+001 3.506907e+001 3.500000e+001
         vertex 6.780233e+001 3.506907e+001 3.500000e+001
         vertex 0.000000e+000 0.000000e+000 3.500000e+001
      endloop
   endfacet
   facet normal 0.000000e+000 0.000000e+000 1.000000e+000
      outer loop
         vertex 0.000000e+000 0.000000e+000 3.500000e+001
         vertex 6.780233e+001 3.506907e+001 3.500000e+001
         vertex 6.344166e+001 3.561995e+001 3.500000e+001
      endloop
   endfacet
   facet normal 0.000000e+000 0.000000e+000 1.000000e+000
      outer loop
         vertex 0.000000e+000 0.000000e+000 3.500000e+001
         vertex 6.344166e+001 3.561995e+001 3.500000e+001
         vertex 5.918441e+001 3.671302e+001 3.500000e+001
      endloop
   endfacet
   facet normal 0.000000e+000 0.000000e+000 1.000000e+000
      outer loop
         vertex 5.918441e+001 3.671302e+001 3.500000e+001
         vertex 5.509772e+001 3.833105e+001 3.500000e+001
         vertex 0.000000e+000 0.000000e+000 3.500000e+001
      endloop
   endfacet
   facet normal 0.000000e+000 0.000000e+000 1.000000e+000
      outer loop
         vertex 0.000000e+000 0.000000e+000 3.500000e+001
         vertex 5.509772e+001 3.833105e+001 3.500000e+001
         vertex 5.124606e+001 4.044852e+001 3.500000e+001
      endloop
   endfacet
   facet normal 0.000000e+000 0.000000e+000 1.000000e+000
      outer loop
         vertex 0.000000e+000 0.000000e+000 3.500000e+001
         vertex 5.124606e+001 4.044852e+001 3.500000e+001
         vertex 4.769016e+001 4.303204e+001 3.500000e+001
      endloop
   endfacet
   facet normal 0.000000e+000 0.000000e+000 1.000000e+000
      outer loop
         vertex 4.769016e+001 4.303204e+001 3.500000e+001
         vertex 4.448610e+001 4.604085e+001 3.500000e+001
         vertex 0.000000e+000 0.000000e+000 3.500000e+001
      endloop
   endfacet
   facet normal 0.000000e+000 0.000000e+000 1.000000e+000
      outer loop
         vertex 0.000000e+000 0.000000e+000 3.500000e+001
         vertex 4.448610e+001 4.604085e+001 3.500000e+001
         vertex 4.168440e+001 4.942752e+001 3.500000e+001
      endloop
   endfacet
   facet normal 0.000000e+000 0.000000e+000 1.000000e+000
      outer loop
         vertex 0.000000e+000 0.000000e+000 3.500000e+001
         vertex 4.168440e+001 4.942752e+001 3.500000e+001
         vertex 3.932927e+001 5.313862e+001 3.500000e+001
      endloop
   endfacet
   facet normal 0.000000e+000 0.000000e+000 1.000000e+000
      outer loop
         vertex 9.551390e+001 4.604085e+001 3.500000e+001
         vertex 9.230984e+001 4.303204e+001 3.500000e+001
         vertex 1.400000e+002 0.000000e+000 3.500000e+001
      endloop
   endfacet
   facet normal 0.000000e+000 0.000000e+000 1.000000e+000
      outer loop
         vertex 1.400000e+002 0.000000e+000 3.500000e+001
         vertex 9.230984e+001 4.303204e+001 3.500000e+001
         vertex 8.875394e+001 4.044852e+001 3.500000e+001
      endloop
   endfacet
   facet normal 0.000000e+000 0.000000e+000 1.000000e+000
      outer loop
         vertex 1.400000e+002 0.000000e+000 3.500000e+001
         vertex 8.875394e+001 4.044852e+001 3.500000e+001
         vertex 8.490228e+001 3.833105e+001 3.500000e+001
      endloop
   endfacet
   facet normal 0.000000e+000 0.000000e+000 1.000000e+000
      outer loop
         vertex 8.490228e+001 3.833105e+001 3.500000e+001
         vertex 8.081560e+001 3.671302e+001 3.500000e+001
         vertex 1.400000e+002 0.000000e+000 3.500000e+001
      endloop
   endfacet
   facet normal 0.000000e+000 0.000000e+000 1.000000e+000
      outer loop
         vertex 1.400000e+002 0.000000e+000 3.500000e+001
         vertex 8.081560e+001 3.671302e+001 3.500000e+001
         vertex 7.655834e+001 3.561995e+001 3.500000e+001
      endloop
   endfacet
   facet normal 0.000000e+000 0.000000e+000 1.000000e+000
      outer loop
         vertex 1.400000e+002 0.000000e+000 3.500000e+001
         vertex 7.655834e+001 3.561995e+001 3.500000e+001
         vertex 7.219767e+001 3.506907e+001 3.500000e+001
      endloop
   endfacet
   facet normal 0.000000e+000 0.000000e+000 -1.000000e+000
      outer loop
         vertex 1.047240e+002 6.561333e+001 0.000000e+000
         vertex 1.050000e+002 7.000000e+001 0.000000e+000
         vertex 1.400000e+002 7.000000e+001 0.000000e+000
      endloop
   endfacet
   facet normal 0.000000e+000 0.000000e+000 -1.000000e+000
      outer loop
         vertex 1.400000e+002 0.000000e+000 0.000000e+000
         vertex 9.551390e+001 4.604085e+001 0.000000e+000
         vertex 9.831560e+001 4.942752e+001 0.000000e+000
      endloop
   endfacet
   facet normal 0.000000e+000 0.000000e+000 -1.000000e+000
      outer loop
         vertex 3.500000e+001 7.000000e+001 0.000000e+000
         vertex 3.527599e+001 6.561333e+001 0.000000e+000
         vertex 0.000000e+000 7.000000e+001 0.000000e+000
      endloop
   endfacet
   facet normal 0.000000e+000 0.000000e+000 -1.000000e+000
      outer loop
         vertex 0.000000e+000 7.000000e+001 0.000000e+000
         vertex 3.527599e+001 6.561333e+001 0.000000e+000
         vertex 3.609959e+001 6.129586e+001 0.000000e+000
      endloop
   endfacet
   facet normal 0.000000e+000 0.000000e+000 -1.000000e+000
      outer loop
         vertex 0.000000e+000 7.000000e+001 0.000000e+000
         vertex 3.609959e+001 6.129586e+001 0.000000e+000
         vertex 0.000000e+000 0.000000e+000 0.000000e+000
      endloop
   endfacet
   facet normal 0.000000e+000 0.000000e+000 -1.000000e+000
      outer loop
         vertex 0.000000e+000 0.000000e+000 0.000000e+000
         vertex 3.609959e+001 6.129586e+001 0.000000e+000
         vertex 3.745782e+001 5.711564e+001 0.000000e+000
      endloop
   endfacet
   facet normal 0.000000e+000 0.000000e+000 -1.000000e+000
      outer loop
         vertex 0.000000e+000 0.000000e+000 0.000000e+000
         vertex 3.745782e+001 5.711564e+001 0.000000e+000
         vertex 3.932927e+001 5.313862e+001 0.000000e+000
      endloop
   endfacet
   facet normal 0.000000e+000 0.000000e+000 -1.000000e+000
      outer loop
         vertex 3.932927e+001 5.313862e+001 0.000000e+000
         vertex 4.168440e+001 4.942752e+001 0.000000e+000
         vertex 0.000000e+000 0.000000e+000 0.000000e+000
      endloop
   endfacet
   facet normal 0.000000e+000 0.000000e+000 -1.000000e+000
      outer loop
         vertex 0.000000e+000 0.000000e+000 0.000000e+000
         vertex 4.168440e+001 4.942752e+001 0.000000e+000
         vertex 4.448610e+001 4.604085e+001 0.000000e+000
      endloop
   endfacet
   facet normal 0.000000e+000 0.000000e+000 -1.000000e+000
      outer loop
         vertex 0.000000e+000 0.000000e+000 0.000000e+000
         vertex 4.448610e+001 4.604085e+001 0.000000e+000
         vertex 4.769016e+001 4.303204e+001 0.000000e+000
      endloop
   endfacet
   facet normal 0.000000e+000 0.000000e+000 -1.000000e+000
      outer loop
         vertex 4.769016e+001 4.303204e+001 0.000000e+000
         vertex 5.124606e+001 4.044852e+001 0.000000e+000
         vertex 0.000000e+000 0.000000e+000 0.000000e+000
      endloop
   endfacet
   facet normal 0.000000e+000 0.000000e+000 -1.000000e+000
      outer loop
         vertex 0.000000e+000 0.000000e+000 0.000000e+000
         vertex 5.124606e+001 4.044852e+001 0.000000e+000
         vertex 5.509772e+001 3.833105e+001 0.000000e+000
      endloop
   endfacet
   facet normal 0.000000e+000 0.000000e+000 -1.000000e+000
      outer loop
         vertex 0.000000e+000 0.000000e+000 0.000000e+000
         vertex 5.509772e+001 3.833105e+001 0.000000e+000
         vertex 5.918441e+001 3.671302e+001 0.000000e+000
      endloop
   endfacet
   facet normal 0.000000e+000 0.000000e+000 -1.000000e+000
      outer loop
         vertex 7.219767e+001 3.506907e+001 0.000000e+000
         vertex 1.400000e+002 0.000000e+000 0.000000e+000
         vertex 6.780233e+001 3.506907e+001 0.000000e+000
      endloop
   endfacet
   facet normal 0.000000e+000 0.000000e+000 -1.000000e+000
      outer loop
         vertex 6.780233e+001 3.506907e+001 0.000000e+000
         vertex 1.400000e+002 0.000000e+000 0.000000e+000
         vertex 0.000000e+000 0.000000e+000 0.000000e+000
      endloop
   endfacet
   facet normal 0.000000e+000 0.000000e+000 -1.000000e+000
      outer loop
         vertex 6.780233e+001 3.506907e+001 0.000000e+000
         vertex 0.000000e+000 0.000000e+000 0.000000e+000
         vertex 6.344166e+001 3.561995e+001 0.000000e+000
      endloop
   endfacet
   facet normal 0.000000e+000 0.000000e+000 -1.000000e+000
      outer loop
         vertex 6.344166e+001 3.561995e+001 0.000000e+000
         vertex 0.000000e+000 0.000000e+000 0.000000e+000
         vertex 5.918441e+001 3.671302e+001 0.000000e+000
      endloop
   endfacet
   facet normal 0.000000e+000 0.000000e+000 -1.000000e+000
      outer loop
         vertex 7.219767e+001 3.506907e+001 0.000000e+000
         vertex 7.655834e+001 3.561995e+001 0.000000e+000
         vertex 1.400000e+002 0.000000e+000 0.000000e+000
      endloop
   endfacet
   facet normal 0.000000e+000 0.000000e+000 -1.000000e+000
      outer loop
         vertex 1.400000e+002 0.000000e+000 0.000000e+000
         vertex 7.655834e+001 3.561995e+001 0.000000e+000
         vertex 8.081560e+001 3.671302e+001 0.000000e+000
      endloop
   endfacet
   facet normal 0.000000e+000 0.000000e+000 -1.000000e+000
      outer loop
         vertex 1.400000e+002 0.000000e+000 0.000000e+000
         vertex 8.081560e+001 3.671302e+001 0.000000e+000
         vertex 8.490228e+001 3.833105e+001 0.000000e+000
      endloop
   endfacet
   facet normal 0.000000e+000 0.000000e+000 -1.000000e+000
      outer loop
         vertex 8.490228e+001 3.833105e+001 0.000000e+000
         vertex 8.875394e+001 4.044852e+001 0.000000e+000
         vertex 1.400000e+002 0.000000e+000 0.000000e+000
      endloop
   endfacet
   facet normal 0.000000e+000 0.000000e+000 -1.000000e+000
      outer loop
         vertex 1.400000e+002 0.000000e+000 0.000000e+000
         vertex 8.875394e+001 4.044852e+001 0.000000e+000
         vertex 9.230984e+001 4.303204e+001 0.000000e+000
      endloop
   endfacet
   facet normal 0.000000e+000 0.000000e+000 -1.000000e+000
      outer loop
         vertex 1.400000e+002 0.000000e+000 0.000000e+000
         vertex 9.230984e+001 4.303204e+001 0.000000e+000
         vertex 9.551390e+001 4.604085e+001 0.000000e+000
      endloop
   endfacet
   facet normal 0.000000e+000 0.000000e+000 -1.000000e+000
      outer loop
         vertex 9.831560e+001 4.942752e+001 0.000000e+000
         vertex 1.006707e+002 5.313862e+001 0.000000e+000
         vertex 1.400000e+002 0.000000e+000 0.000000e+000
      endloop
   endfacet
   facet normal 0.000000e+000 0.000000e+000 -1.000000e+000
      outer loop
         vertex 1.400000e+002 0.000000e+000 0.000000e+000
         vertex 1.006707e+002 5.313862e+001 0.000000e+000
         vertex 1.025422e+002 5.711564e+001 0.000000e+000
      endloop
   endfacet
   facet normal 0.000000e+000 0.000000e+000 -1.000000e+000
      outer loop
         vertex 1.400000e+002 0.000000e+000 0.000000e+000
         vertex 1.025422e+002 5.711564e+001 0.000000e+000
         vertex 1.400000e+002 7.000000e+001 0.000000e+000
      endloop
   endfacet
   facet normal 0.000000e+000 0.000000e+000 -1.000000e+000
      outer loop
         vertex 1.400000e+002 7.000000e+001 0.000000e+000
         vertex 1.025422e+002 5.711564e+001 0.000000e+000
         vertex 1.039004e+002 6.129586e+001 0.000000e+000
      endloop
   endfacet
   facet normal 0.000000e+000 0.000000e+000 -1.000000e+000
      outer loop
         vertex 1.400000e+002 7.000000e+001 0.000000e+000
         vertex 1.039004e+002 6.129586e+001 0.000000e+000
         vertex 1.047240e+002 6.561333e+001 0.000000e+000
      endloop
   endfacet
endsolid