solid cylinder
   facet normal -9.983119e-001 5.807913e-002 0.000000e+000
      outer loop
         vertex -1.723413e+001 3.038843e+000 7.000000e+001
         vertex -1.750000e+001 0.000000e+000 -7.000000e+001
         vertex -1.750000e+001 0.000000e+000 7.000000e+001
      endloop
   endfacet
   facet normal -9.983119e-001 -5.807913e-002 0.000000e+000
      outer loop
         vertex -1.750000e+001 0.000000e+000 7.000000e+001
         vertex -1.750000e+001 0.000000e+000 -7.000000e+001
         vertex -1.723413e+001 -3.038843e+000 -7.000000e+001
      endloop
   endfacet
   facet normal -9.932307e-001 -1.161583e-001 0.000000e+000
      outer loop
         vertex -1.750000e+001 0.000000e+000 7.000000e+001
         vertex -1.723413e+001 -3.038843e+000 -7.000000e+001
         vertex -1.723413e+001 -3.038843e+000 7.000000e+001
      endloop
   endfacet
   facet normal -9.730600e-001 -2.305519e-001 0.000000e+000
      outer loop
         vertex -1.723413e+001 -3.038843e+000 7.000000e+001
         vertex -1.723413e+001 -3.038843e+000 -7.000000e+001
         vertex -1.644462e+001 -5.985353e+000 -7.000000e+001
      endloop
   endfacet
   facet normal -9.579706e-001 -2.868663e-001 0.000000e+000
      outer loop
         vertex -1.723413e+001 -3.038843e+000 7.000000e+001
         vertex -1.644462e+001 -5.985353e+000 -7.000000e+001
         vertex -1.644462e+001 -5.985353e+000 7.000000e+001
      endloop
   endfacet
   facet normal -9.182422e-001 -3.960194e-001 0.000000e+000
      outer loop
         vertex -1.644462e+001 -5.985353e+000 7.000000e+001
         vertex -1.644462e+001 -5.985353e+000 -7.000000e+001
         vertex -1.515545e+001 -8.750000e+000 -7.000000e+001
      endloop
   endfacet
   facet normal -8.936031e-001 -4.488580e-001 0.000000e+000
      outer loop
         vertex -1.644462e+001 -5.985353e+000 7.000000e+001
         vertex -1.515545e+001 -8.750000e+000 -7.000000e+001
         vertex -1.515545e+001 -8.750000e+000 7.000000e+001
      endloop
   endfacet
   facet normal -8.355240e-001 -5.494540e-001 0.000000e+000
      outer loop
         vertex -1.515545e+001 -8.750000e+000 7.000000e+001
         vertex -1.515545e+001 -8.750000e+000 -7.000000e+001
         vertex -1.340578e+001 -1.124878e+001 -7.000000e+001
      endloop
   endfacet
   facet normal -8.020838e-001 -5.972114e-001 0.000000e+000
      outer loop
         vertex -1.515545e+001 -8.750000e+000 7.000000e+001
         vertex -1.340578e+001 -1.124878e+001 -7.000000e+001
         vertex -1.340578e+001 -1.124878e+001 7.000000e+001
      endloop
   endfacet
   facet normal -7.274188e-001 -6.861938e-001 0.000000e+000
      outer loop
         vertex -1.340578e+001 -1.124878e+001 7.000000e+001
         vertex -1.340578e+001 -1.124878e+001 -7.000000e+001
         vertex -1.124878e+001 -1.340578e+001 -7.000000e+001
      endloop
   endfacet
   facet normal -6.861938e-001 -7.274188e-001 0.000000e+000
      outer loop
         vertex -1.340578e+001 -1.124878e+001 7.000000e+001
         vertex -1.124878e+001 -1.340578e+001 -7.000000e+001
         vertex -1.124878e+001 -1.340578e+001 7.000000e+001
      endloop
   endfacet
   facet normal -5.972114e-001 -8.020838e-001 0.000000e+000
      outer loop
         vertex -1.124878e+001 -1.340578e+001 7.000000e+001
         vertex -1.124878e+001 -1.340578e+001 -7.000000e+001
         vertex -8.750000e+000 -1.515545e+001 -7.000000e+001
      endloop
   endfacet
   facet normal -5.494540e-001 -8.355240e-001 0.000000e+000
      outer loop
         vertex -1.124878e+001 -1.340578e+001 7.000000e+001
         vertex -8.750000e+000 -1.515545e+001 -7.000000e+001
         vertex -8.750000e+000 -1.515545e+001 7.000000e+001
      endloop
   endfacet
   facet normal -4.488580e-001 -8.936031e-001 0.000000e+000
      outer loop
         vertex -8.750000e+000 -1.515545e+001 7.000000e+001
         vertex -8.750000e+000 -1.515545e+001 -7.000000e+001
         vertex -5.985353e+000 -1.644462e+001 -7.000000e+001
      endloop
   endfacet
   facet normal -3.960194e-001 -9.182422e-001 0.000000e+000
      outer loop
         vertex -8.750000e+000 -1.515545e+001 7.000000e+001
         vertex -5.985353e+000 -1.644462e+001 -7.000000e+001
         vertex -5.985353e+000 -1.644462e+001 7.000000e+001
      endloop
   endfacet
   facet normal -2.868663e-001 -9.579706e-001 0.000000e+000
      outer loop
         vertex -5.985353e+000 -1.644462e+001 7.000000e+001
         vertex -5.985353e+000 -1.644462e+001 -7.000000e+001
         vertex -3.038843e+000 -1.723413e+001 -7.000000e+001
      endloop
   endfacet
   facet normal -2.305519e-001 -9.730600e-001 0.000000e+000
      outer loop
         vertex -5.985353e+000 -1.644462e+001 7.000000e+001
         vertex -3.038843e+000 -1.723413e+001 -7.000000e+001
         vertex -3.038843e+000 -1.723413e+001 7.000000e+001
      endloop
   endfacet
   facet normal -1.161583e-001 -9.932307e-001 0.000000e+000
      outer loop
         vertex -3.038843e+000 -1.723413e+001 7.000000e+001
         vertex -3.038843e+000 -1.723413e+001 -7.000000e+001
         vertex 3.214698e-015 -1.750000e+001 -7.000000e+001
      endloop
   endfacet
   facet normal -5.807913e-002 -9.983119e-001 0.000000e+000
      outer loop
         vertex -3.038843e+000 -1.723413e+001 7.000000e+001
         vertex 3.214698e-015 -1.750000e+001 -7.000000e+001
         vertex 3.214698e-015 -1.750000e+001 7.000000e+001
      endloop
   endfacet
   facet normal 5.807913e-002 -9.983119e-001 0.000000e+000
      outer loop
         vertex 3.214698e-015 -1.750000e+001 7.000000e+001
         vertex 3.214698e-015 -1.750000e+001 -7.000000e+001
         vertex 3.038843e+000 -1.723413e+001 -7.000000e+001
      endloop
   endfacet
   facet normal 1.161583e-001 -9.932307e-001 0.000000e+000
      outer loop
         vertex 3.214698e-015 -1.750000e+001 7.000000e+001
         vertex 3.038843e+000 -1.723413e+001 -7.000000e+001
         vertex 3.038843e+000 -1.723413e+001 7.000000e+001
      endloop
   endfacet
   facet normal 2.305519e-001 -9.730600e-001 0.000000e+000
      outer loop
         vertex 3.038843e+000 -1.723413e+001 7.000000e+001
         vertex 3.038843e+000 -1.723413e+001 -7.000000e+001
         vertex 5.985353e+000 -1.644462e+001 -7.000000e+001
      endloop
   endfacet
   facet normal 2.868663e-001 -9.579706e-001 0.000000e+000
      outer loop
         vertex 3.038843e+000 -1.723413e+001 7.000000e+001
         vertex 5.985353e+000 -1.644462e+001 -7.000000e+001
         vertex 5.985353e+000 -1.644462e+001 7.000000e+001
      endloop
   endfacet
   facet normal 3.960194e-001 -9.182422e-001 0.000000e+000
      outer loop
         vertex 5.985353e+000 -1.644462e+001 7.000000e+001
         vertex 5.985353e+000 -1.644462e+001 -7.000000e+001
         vertex 8.750000e+000 -1.515545e+001 -7.000000e+001
      endloop
   endfacet
   facet normal 4.488580e-001 -8.936031e-001 0.000000e+000
      outer loop
         vertex 5.985353e+000 -1.644462e+001 7.000000e+001
         vertex 8.750000e+000 -1.515545e+001 -7.000000e+001
         vertex 8.750000e+000 -1.515545e+001 7.000000e+001
      endloop
   endfacet
   facet normal 5.494540e-001 -8.355240e-001 0.000000e+000
      outer loop
         vertex 8.750000e+000 -1.515545e+001 7.000000e+001
         vertex 8.750000e+000 -1.515545e+001 -7.000000e+001
         vertex 1.124878e+001 -1.340578e+001 -7.000000e+001
      endloop
   endfacet
   facet normal 5.972114e-001 -8.020838e-001 0.000000e+000
      outer loop
         vertex 8.750000e+000 -1.515545e+001 7.000000e+001
         vertex 1.124878e+001 -1.340578e+001 -7.000000e+001
         vertex 1.124878e+001 -1.340578e+001 7.000000e+001
      endloop
   endfacet
   facet normal 6.861938e-001 -7.274188e-001 0.000000e+000
      outer loop
         vertex 1.124878e+001 -1.340578e+001 7.000000e+001
         vertex 1.124878e+001 -1.340578e+001 -7.000000e+001
         vertex 1.340578e+001 -1.124878e+001 -7.000000e+001
      endloop
   endfacet
   facet normal 7.274188e-001 -6.861938e-001 0.000000e+000
      outer loop
         vertex 1.124878e+001 -1.340578e+001 7.000000e+001
         vertex 1.340578e+001 -1.124878e+001 -7.000000e+001
         vertex 1.340578e+001 -1.124878e+001 7.000000e+001
      endloop
   endfacet
   facet normal 8.020838e-001 -5.972114e-001 0.000000e+000
      outer loop
         vertex 1.340578e+001 -1.124878e+001 7.000000e+001
         vertex 1.340578e+001 -1.124878e+001 -7.000000e+001
         vertex 1.515545e+001 -8.750000e+000 -7.000000e+001
      endloop
   endfacet
   facet normal 8.355240e-001 -5.494540e-001 0.000000e+000
      outer loop
         vertex 1.340578e+001 -1.124878e+001 7.000000e+001
         vertex 1.515545e+001 -8.750000e+000 -7.000000e+001
         vertex 1.515545e+001 -8.750000e+000 7.000000e+001
      endloop
   endfacet
   facet normal 8.936031e-001 -4.488580e-001 0.000000e+000
      outer loop
         vertex 1.515545e+001 -8.750000e+000 7.000000e+001
         vertex 1.515545e+001 -8.750000e+000 -7.000000e+001
         vertex 1.644462e+001 -5.985353e+000 -7.000000e+001
      endloop
   endfacet
   facet normal 9.182422e-001 -3.960194e-001 0.000000e+000
      outer loop
         vertex 1.515545e+001 -8.750000e+000 7.000000e+001
         vertex 1.644462e+001 -5.985353e+000 -7.000000e+001
         vertex 1.644462e+001 -5.985353e+000 7.000000e+001
      endloop
   endfacet
   facet normal 9.579706e-001 -2.868663e-001 0.000000e+000
      outer loop
         vertex 1.644462e+001 -5.985353e+000 7.000000e+001
         vertex 1.644462e+001 -5.985353e+000 -7.000000e+001
         vertex 1.723413e+001 -3.038843e+000 -7.000000e+001
      endloop
   endfacet
   facet normal 9.730600e-001 -2.305519e-001 0.000000e+000
      outer loop
         vertex 1.644462e+001 -5.985353e+000 7.000000e+001
         vertex 1.723413e+001 -3.038843e+000 -7.000000e+001
         vertex 1.723413e+001 -3.038843e+000 7.000000e+001
      endloop
   endfacet
   facet normal 9.932307e-001 -1.161583e-001 0.000000e+000
      outer loop
         vertex 1.723413e+001 -3.038843e+000 7.000000e+001
         vertex 1.723413e+001 -3.038843e+000 -7.000000e+001
         vertex 1.750000e+001 2.143132e-015 -7.000000e+001
      endloop
   endfacet
   facet normal 9.983119e-001 -5.807913e-002 0.000000e+000
      outer loop
         vertex 1.723413e+001 -3.038843e+000 7.000000e+001
         vertex 1.750000e+001 2.143132e-015 -7.000000e+001
         vertex 1.750000e+001 2.143132e-015 7.000000e+001
      endloop
   endfacet
   facet normal 9.983119e-001 5.807913e-002 0.000000e+000
      outer loop
         vertex 1.750000e+001 2.143132e-015 7.000000e+001
         vertex 1.750000e+001 2.143132e-015 -7.000000e+001
         vertex 1.723413e+001 3.038843e+000 -7.000000e+001
      endloop
   endfacet
   facet normal 9.932307e-001 1.161583e-001 0.000000e+000
      outer loop
         vertex 1.750000e+001 2.143132e-015 7.000000e+001
         vertex 1.723413e+001 3.038843e+000 -7.000000e+001
         vertex 1.723413e+001 3.038843e+000 7.000000e+001
      endloop
   endfacet
   facet normal 9.730600e-001 2.305519e-001 0.000000e+000
      outer loop
         vertex 1.723413e+001 3.038843e+000 7.000000e+001
         vertex 1.723413e+001 3.038843e+000 -7.000000e+001
         vertex 1.644462e+001 5.985353e+000 -7.000000e+001
      endloop
   endfacet
   facet normal 9.579706e-001 2.868663e-001 0.000000e+000
      outer loop
         vertex 1.723413e+001 3.038843e+000 7.000000e+001
         vertex 1.644462e+001 5.985353e+000 -7.000000e+001
         vertex 1.644462e+001 5.985353e+000 7.000000e+001
      endloop
   endfacet
   facet normal 9.182422e-001 3.960194e-001 0.000000e+000
      outer loop
         vertex 1.644462e+001 5.985353e+000 7.000000e+001
         vertex 1.644462e+001 5.985353e+000 -7.000000e+001
         vertex 1.515545e+001 8.750000e+000 -7.000000e+001
      endloop
   endfacet
   facet normal 8.936031e-001 4.488580e-001 0.000000e+000
      outer loop
         vertex 1.644462e+001 5.985353e+000 7.000000e+001
         vertex 1.515545e+001 8.750000e+000 -7.000000e+001
         vertex 1.515545e+001 8.750000e+000 7.000000e+001
      endloop
   endfacet
   facet normal 8.355240e-001 5.494540e-001 0.000000e+000
      outer loop
         vertex 1.515545e+001 8.750000e+000 7.000000e+001
         vertex 1.515545e+001 8.750000e+000 -7.000000e+001
         vertex 1.340578e+001 1.124878e+001 -7.000000e+001
      endloop
   endfacet
   facet normal 8.020838e-001 5.972114e-001 0.000000e+000
      outer loop
         vertex 1.515545e+001 8.750000e+000 7.000000e+001
         vertex 1.340578e+001 1.124878e+001 -7.000000e+001
         vertex 1.340578e+001 1.124878e+001 7.000000e+001
      endloop
   endfacet
   facet normal 7.274188e-001 6.861938e-001 0.000000e+000
      outer loop
         vertex 1.340578e+001 1.124878e+001 7.000000e+001
         vertex 1.340578e+001 1.124878e+001 -7.000000e+001
         vertex 1.124878e+001 1.340578e+001 -7.000000e+001
      endloop
   endfacet
   facet normal 6.861938e-001 7.274188e-001 0.000000e+000
      outer loop
         vertex 1.340578e+001 1.124878e+001 7.000000e+001
         vertex 1.124878e+001 1.340578e+001 -7.000000e+001
         vertex 1.124878e+001 1.340578e+001 7.000000e+001
      endloop
   endfacet
   facet normal 5.972114e-001 8.020838e-001 0.000000e+000
      outer loop
         vertex 1.124878e+001 1.340578e+001 7.000000e+001
         vertex 1.124878e+001 1.340578e+001 -7.000000e+001
         vertex 8.750000e+000 1.515545e+001 -7.000000e+001
      endloop
   endfacet
   facet normal 5.494540e-001 8.355240e-001 0.000000e+000
      outer loop
         vertex 1.124878e+001 1.340578e+001 7.000000e+001
         vertex 8.750000e+000 1.515545e+001 -7.000000e+001
         vertex 8.750000e+000 1.515545e+001 7.000000e+001
      endloop
   endfacet
   facet normal 4.488580e-001 8.936031e-001 0.000000e+000
      outer loop
         vertex 8.750000e+000 1.515545e+001 7.000000e+001
         vertex 8.750000e+000 1.515545e+001 -7.000000e+001
         vertex 5.985353e+000 1.644462e+001 -7.000000e+001
      endloop
   endfacet
   facet normal 3.960194e-001 9.182422e-001 0.000000e+000
      outer loop
         vertex 8.750000e+000 1.515545e+001 7.000000e+001
         vertex 5.985353e+000 1.644462e+001 -7.000000e+001
         vertex 5.985353e+000 1.644462e+001 7.000000e+001
      endloop
   endfacet
   facet normal 2.868663e-001 9.579706e-001 0.000000e+000
      outer loop
         vertex 5.985353e+000 1.644462e+001 7.000000e+001
         vertex 5.985353e+000 1.644462e+001 -7.000000e+001
         vertex 3.038843e+000 1.723413e+001 -7.000000e+001
      endloop
   endfacet
   facet normal 2.305519e-001 9.730600e-001 0.000000e+000
      outer loop
         vertex 5.985353e+000 1.644462e+001 7.000000e+001
         vertex 3.038843e+000 1.723413e+001 -7.000000e+001
         vertex 3.038843e+000 1.723413e+001 7.000000e+001
      endloop
   endfacet
   facet normal 1.161583e-001 9.932307e-001 0.000000e+000
      outer loop
         vertex 3.038843e+000 1.723413e+001 7.000000e+001
         vertex 3.038843e+000 1.723413e+001 -7.000000e+001
         vertex -1.071566e-015 1.750000e+001 -7.000000e+001
      endloop
   endfacet
   facet normal 5.807913e-002 9.983119e-001 0.000000e+000
      outer loop
         vertex 3.038843e+000 1.723413e+001 7.000000e+001
         vertex -1.071566e-015 1.750000e+001 -7.000000e+001
         vertex -1.071566e-015 1.750000e+001 7.000000e+001
      endloop
   endfacet
   facet normal -5.807913e-002 9.983119e-001 0.000000e+000
      outer loop
         vertex -1.071566e-015 1.750000e+001 7.000000e+001
         vertex -1.071566e-015 1.750000e+001 -7.000000e+001
         vertex -3.038843e+000 1.723413e+001 -7.000000e+001
      endloop
   endfacet
   facet normal -1.161583e-001 9.932307e-001 0.000000e+000
      outer loop
         vertex -1.071566e-015 1.750000e+001 7.000000e+001
         vertex -3.038843e+000 1.723413e+001 -7.000000e+001
         vertex -3.038843e+000 1.723413e+001 7.000000e+001
      endloop
   endfacet
   facet normal -2.305519e-001 9.730600e-001 0.000000e+000
      outer loop
         vertex -3.038843e+000 1.723413e+001 7.000000e+001
         vertex -3.038843e+000 1.723413e+001 -7.000000e+001
         vertex -5.985353e+000 1.644462e+001 -7.000000e+001
      endloop
   endfacet
   facet normal -2.868663e-001 9.579706e-001 0.000000e+000
      outer loop
         vertex -3.038843e+000 1.723413e+001 7.000000e+001
         vertex -5.985353e+000 1.644462e+001 -7.000000e+001
         vertex -5.985353e+000 1.644462e+001 7.000000e+001
      endloop
   endfacet
   facet normal -3.960194e-001 9.182422e-001 0.000000e+000
      outer loop
         vertex -5.985353e+000 1.644462e+001 7.000000e+001
         vertex -5.985353e+000 1.644462e+001 -7.000000e+001
         vertex -8.750000e+000 1.515545e+001 -7.000000e+001
      endloop
   endfacet
   facet normal -4.488580e-001 8.936031e-001 0.000000e+000
      outer loop
         vertex -5.985353e+000 1.644462e+001 7.000000e+001
         vertex -8.750000e+000 1.515545e+001 -7.000000e+001
         vertex -8.750000e+000 1.515545e+001 7.000000e+001
      endloop
   endfacet
   facet normal -5.494540e-001 8.355240e-001 0.000000e+000
      outer loop
         vertex -8.750000e+000 1.515545e+001 7.000000e+001
         vertex -8.750000e+000 1.515545e+001 -7.000000e+001
         vertex -1.124878e+001 1.340578e+001 -7.000000e+001
      endloop
   endfacet
   facet normal -5.972114e-001 8.020838e-001 0.000000e+000
      outer loop
         vertex -8.750000e+000 1.515545e+001 7.000000e+001
         vertex -1.124878e+001 1.340578e+001 -7.000000e+001
         vertex -1.124878e+001 1.340578e+001 7.000000e+001
      endloop
   endfacet
   facet normal -6.861938e-001 7.274188e-001 0.000000e+000
      outer loop
         vertex -1.124878e+001 1.340578e+001 7.000000e+001
         vertex -1.124878e+001 1.340578e+001 -7.000000e+001
         vertex -1.340578e+001 1.124878e+001 -7.000000e+001
      endloop
   endfacet
   facet normal -7.274188e-001 6.861938e-001 0.000000e+000
      outer loop
         vertex -1.124878e+001 1.340578e+001 7.000000e+001
         vertex -1.340578e+001 1.124878e+001 -7.000000e+001
         vertex -1.340578e+001 1.124878e+001 7.000000e+001
      endloop
   endfacet
   facet normal -8.020838e-001 5.972114e-001 0.000000e+000
      outer loop
         vertex -1.340578e+001 1.124878e+001 7.000000e+001
         vertex -1.340578e+001 1.124878e+001 -7.000000e+001
         vertex -1.515545e+001 8.750000e+000 -7.000000e+001
      endloop
   endfacet
   facet normal -8.355240e-001 5.494540e-001 0.000000e+000
      outer loop
         vertex -1.340578e+001 1.124878e+001 7.000000e+001
         vertex -1.515545e+001 8.750000e+000 -7.000000e+001
         vertex -1.515545e+001 8.750000e+000 7.000000e+001
      endloop
   endfacet
   facet normal -8.936031e-001 4.488580e-001 0.000000e+000
      outer loop
         vertex -1.515545e+001 8.750000e+000 7.000000e+001
         vertex -1.515545e+001 8.750000e+000 -7.000000e+001
         vertex -1.644462e+001 5.985353e+000 -7.000000e+001
      endloop
   endfacet
   facet normal -9.182422e-001 3.960194e-001 0.000000e+000
      outer loop
         vertex -1.515545e+001 8.750000e+000 7.000000e+001
         vertex -1.644462e+001 5.985353e+000 -7.000000e+001
         vertex -1.644462e+001 5.985353e+000 7.000000e+001
      endloop
   endfacet
   facet normal -9.579706e-001 2.868663e-001 0.000000e+000
      outer loop
         vertex -1.644462e+001 5.985353e+000 7.000000e+001
         vertex -1.644462e+001 5.985353e+000 -7.000000e+001
         vertex -1.723413e+001 3.038843e+000 -7.000000e+001
      endloop
   endfacet
   facet normal -9.730600e-001 2.305519e-001 0.000000e+000
      outer loop
         vertex -1.644462e+001 5.985353e+000 7.000000e+001
         vertex -1.723413e+001 3.038843e+000 -7.000000e+001
         vertex -1.723413e+001 3.038843e+000 7.000000e+001
      endloop
   endfacet
   facet normal -9.932307e-001 1.161583e-001 0.000000e+000
      outer loop
         vertex -1.723413e+001 3.038843e+000 7.000000e+001
         vertex -1.723413e+001 3.038843e+000 -7.000000e+001
         vertex -1.750000e+001 0.000000e+000 -7.000000e+001
      endloop
   endfacet
   facet normal 0.000000e+000 0.000000e+000 1.000000e+000
      outer loop
         vertex -8.750000e+000 -1.515545e+001 7.000000e+001
         vertex 1.644462e+001 5.985353e+000 7.000000e+001
         vertex -1.124878e+001 -1.340578e+001 7.000000e+001
      endloop
   endfacet
   facet normal 0.000000e+000 0.000000e+000 1.000000e+000
      outer loop
         vertex -1.124878e+001 -1.340578e+001 7.000000e+001
         vertex 1.644462e+001 5.985353e+000 7.000000e+001
         vertex -1.340578e+001 -1.124878e+001 7.000000e+001
      endloop
   endfacet
   facet normal 0.000000e+000 0.000000e+000 1.000000e+000
      outer loop
         vertex -8.750000e+000 1.515545e+001 7.000000e+001
         vertex -1.124878e+001 1.340578e+001 7.000000e+001
         vertex -1.644462e+001 -5.985353e+000 7.000000e+001
      endloop
   endfacet
   facet normal 0.000000e+000 0.000000e+000 1.000000e+000
      outer loop
         vertex 1.515545e+001 8.750000e+000 7.000000e+001
         vertex -1.644462e+001 -5.985353e+000 7.000000e+001
         vertex 1.644462e+001 5.985353e+000 7.000000e+001
      endloop
   endfacet
   facet normal 0.000000e+000 0.000000e+000 1.000000e+000
      outer loop
         vertex 1.644462e+001 5.985353e+000 7.000000e+001
         vertex -1.644462e+001 -5.985353e+000 7.000000e+001
         vertex -1.515545e+001 -8.750000e+000 7.000000e+001
      endloop
   endfacet
   facet normal 0.000000e+000 0.000000e+000 1.000000e+000
      outer loop
         vertex 1.644462e+001 5.985353e+000 7.000000e+001
         vertex -1.515545e+001 -8.750000e+000 7.000000e+001
         vertex -1.340578e+001 -1.124878e+001 7.000000e+001
      endloop
   endfacet
   facet normal 0.000000e+000 0.000000e+000 1.000000e+000
      outer loop
         vertex 1.515545e+001 8.750000e+000 7.000000e+001
         vertex 1.340578e+001 1.124878e+001 7.000000e+001
         vertex -1.644462e+001 -5.985353e+000 7.000000e+001
      endloop
   endfacet
   facet normal 0.000000e+000 0.000000e+000 1.000000e+000
      outer loop
         vertex -1.644462e+001 -5.985353e+000 7.000000e+001
         vertex 1.340578e+001 1.124878e+001 7.000000e+001
         vertex 1.124878e+001 1.340578e+001 7.000000e+001
      endloop
   endfacet
   facet normal 0.000000e+000 0.000000e+000 1.000000e+000
      outer loop
         vertex -1.644462e+001 -5.985353e+000 7.000000e+001
         vertex 1.124878e+001 1.340578e+001 7.000000e+001
         vertex 8.750000e+000 1.515545e+001 7.000000e+001
      endloop
   endfacet
   facet normal 0.000000e+000 0.000000e+000 1.000000e+000
      outer loop
         vertex -1.723413e+001 3.038843e+000 7.000000e+001
         vertex -1.750000e+001 0.000000e+000 7.000000e+001
         vertex -1.644462e+001 5.985353e+000 7.000000e+001
      endloop
   endfacet
   facet normal 0.000000e+000 0.000000e+000 1.000000e+000
      outer loop
         vertex -1.644462e+001 5.985353e+000 7.000000e+001
         vertex -1.750000e+001 0.000000e+000 7.000000e+001
         vertex -1.515545e+001 8.750000e+000 7.000000e+001
      endloop
   endfacet
   facet normal 0.000000e+000 0.000000e+000 1.000000e+000
      outer loop
         vertex -1.124878e+001 1.340578e+001 7.000000e+001
         vertex -1.340578e+001 1.124878e+001 7.000000e+001
         vertex -1.644462e+001 -5.985353e+000 7.000000e+001
      endloop
   endfacet
   facet normal 0.000000e+000 0.000000e+000 1.000000e+000
      outer loop
         vertex -1.644462e+001 -5.985353e+000 7.000000e+001
         vertex -1.340578e+001 1.124878e+001 7.000000e+001
         vertex -1.515545e+001 8.750000e+000 7.000000e+001
      endloop
   endfacet
   facet normal 0.000000e+000 0.000000e+000 1.000000e+000
      outer loop
         vertex -1.644462e+001 -5.985353e+000 7.000000e+001
         vertex -1.515545e+001 8.750000e+000 7.000000e+001
         vertex -1.723413e+001 -3.038843e+000 7.000000e+001
      endloop
   endfacet
   facet normal 0.000000e+000 0.000000e+000 1.000000e+000
      outer loop
         vertex -1.723413e+001 -3.038843e+000 7.000000e+001
         vertex -1.515545e+001 8.750000e+000 7.000000e+001
         vertex -1.750000e+001 0.000000e+000 7.000000e+001
      endloop
   endfacet
   facet normal 0.000000e+000 0.000000e+000 1.000000e+000
      outer loop
         vertex -8.750000e+000 -1.515545e+001 7.000000e+001
         vertex -5.985353e+000 -1.644462e+001 7.000000e+001
         vertex 1.644462e+001 5.985353e+000 7.000000e+001
      endloop
   endfacet
   facet normal 0.000000e+000 0.000000e+000 1.000000e+000
      outer loop
         vertex 1.644462e+001 5.985353e+000 7.000000e+001
         vertex -5.985353e+000 -1.644462e+001 7.000000e+001
         vertex -3.038843e+000 -1.723413e+001 7.000000e+001
      endloop
   endfacet
   facet normal 0.000000e+000 0.000000e+000 1.000000e+000
      outer loop
         vertex 1.644462e+001 5.985353e+000 7.000000e+001
         vertex -3.038843e+000 -1.723413e+001 7.000000e+001
         vertex 3.214698e-015 -1.750000e+001 7.000000e+001
      endloop
   endfacet
   facet normal 0.000000e+000 0.000000e+000 1.000000e+000
      outer loop
         vertex 8.750000e+000 1.515545e+001 7.000000e+001
         vertex 5.985353e+000 1.644462e+001 7.000000e+001
         vertex -1.644462e+001 -5.985353e+000 7.000000e+001
      endloop
   endfacet
   facet normal 0.000000e+000 0.000000e+000 1.000000e+000
      outer loop
         vertex -1.644462e+001 -5.985353e+000 7.000000e+001
         vertex 5.985353e+000 1.644462e+001 7.000000e+001
         vertex 3.038843e+000 1.723413e+001 7.000000e+001
      endloop
   endfacet
   facet normal 0.000000e+000 0.000000e+000 1.000000e+000
      outer loop
         vertex -1.644462e+001 -5.985353e+000 7.000000e+001
         vertex 3.038843e+000 1.723413e+001 7.000000e+001
         vertex -1.071566e-015 1.750000e+001 7.000000e+001
      endloop
   endfacet
   facet normal 0.000000e+000 0.000000e+000 1.000000e+000
      outer loop
         vertex -1.071566e-015 1.750000e+001 7.000000e+001
         vertex -3.038843e+000 1.723413e+001 7.000000e+001
         vertex -1.644462e+001 -5.985353e+000 7.000000e+001
      endloop
   endfacet
   facet normal 0.000000e+000 0.000000e+000 1.000000e+000
      outer loop
         vertex -1.644462e+001 -5.985353e+000 7.000000e+001
         vertex -3.038843e+000 1.723413e+001 7.000000e+001
         vertex -5.985353e+000 1.644462e+001 7.000000e+001
      endloop
   endfacet
   facet normal 0.000000e+000 0.000000e+000 1.000000e+000
      outer loop
         vertex -1.644462e+001 -5.985353e+000 7.000000e+001
         vertex -5.985353e+000 1.644462e+001 7.000000e+001
         vertex -8.750000e+000 1.515545e+001 7.000000e+001
      endloop
   endfacet
   facet normal 0.000000e+000 0.000000e+000 1.000000e+000
      outer loop
         vertex 3.214698e-015 -1.750000e+001 7.000000e+001
         vertex 3.038843e+000 -1.723413e+001 7.000000e+001
         vertex 1.644462e+001 5.985353e+000 7.000000e+001
      endloop
   endfacet
   facet normal 0.000000e+000 0.000000e+000 1.000000e+000
      outer loop
         vertex 1.644462e+001 5.985353e+000 7.000000e+001
         vertex 3.038843e+000 -1.723413e+001 7.000000e+001
         vertex 5.985353e+000 -1.644462e+001 7.000000e+001
      endloop
   endfacet
   facet normal 0.000000e+000 0.000000e+000 1.000000e+000
      outer loop
         vertex 1.644462e+001 5.985353e+000 7.000000e+001
         vertex 5.985353e+000 -1.644462e+001 7.000000e+001
         vertex 8.750000e+000 -1.515545e+001 7.000000e+001
      endloop
   endfacet
   facet normal 0.000000e+000 0.000000e+000 1.000000e+000
      outer loop
         vertex 1.750000e+001 2.143132e-015 7.000000e+001
         vertex 1.340578e+001 -1.124878e+001 7.000000e+001
         vertex 1.723413e+001 -3.038843e+000 7.000000e+001
      endloop
   endfacet
   facet normal 0.000000e+000 0.000000e+000 1.000000e+000
      outer loop
         vertex 1.723413e+001 -3.038843e+000 7.000000e+001
         vertex 1.340578e+001 -1.124878e+001 7.000000e+001
         vertex 1.515545e+001 -8.750000e+000 7.000000e+001
      endloop
   endfacet
   facet normal 0.000000e+000 0.000000e+000 1.000000e+000
      outer loop
         vertex 1.723413e+001 -3.038843e+000 7.000000e+001
         vertex 1.515545e+001 -8.750000e+000 7.000000e+001
         vertex 1.644462e+001 -5.985353e+000 7.000000e+001
      endloop
   endfacet
   facet normal 0.000000e+000 0.000000e+000 1.000000e+000
      outer loop
         vertex 8.750000e+000 -1.515545e+001 7.000000e+001
         vertex 1.124878e+001 -1.340578e+001 7.000000e+001
         vertex 1.644462e+001 5.985353e+000 7.000000e+001
      endloop
   endfacet
   facet normal 0.000000e+000 0.000000e+000 1.000000e+000
      outer loop
         vertex 1.644462e+001 5.985353e+000 7.000000e+001
         vertex 1.124878e+001 -1.340578e+001 7.000000e+001
         vertex 1.340578e+001 -1.124878e+001 7.000000e+001
      endloop
   endfacet
   facet normal 0.000000e+000 0.000000e+000 1.000000e+000
      outer loop
         vertex 1.644462e+001 5.985353e+000 7.000000e+001
         vertex 1.340578e+001 -1.124878e+001 7.000000e+001
         vertex 1.723413e+001 3.038843e+000 7.000000e+001
      endloop
   endfacet
   facet normal 0.000000e+000 0.000000e+000 1.000000e+000
      outer loop
         vertex 1.723413e+001 3.038843e+000 7.000000e+001
         vertex 1.340578e+001 -1.124878e+001 7.000000e+001
         vertex 1.750000e+001 2.143132e-015 7.000000e+001
      endloop
   endfacet
   facet normal 0.000000e+000 0.000000e+000 -1.000000e+000
      outer loop
         vertex 3.214698e-015 -1.750000e+001 -7.000000e+001
         vertex -3.038843e+000 -1.723413e+001 -7.000000e+001
         vertex -5.985353e+000 1.644462e+001 -7.000000e+001
      endloop
   endfacet
   facet normal 0.000000e+000 0.000000e+000 -1.000000e+000
      outer loop
         vertex -5.985353e+000 1.644462e+001 -7.000000e+001
         vertex -3.038843e+000 -1.723413e+001 -7.000000e+001
         vertex -5.985353e+000 -1.644462e+001 -7.000000e+001
      endloop
   endfacet
   facet normal 0.000000e+000 0.000000e+000 -1.000000e+000
      outer loop
         vertex -5.985353e+000 1.644462e+001 -7.000000e+001
         vertex -5.985353e+000 -1.644462e+001 -7.000000e+001
         vertex -8.750000e+000 -1.515545e+001 -7.000000e+001
      endloop
   endfacet
   facet normal 0.000000e+000 0.000000e+000 -1.000000e+000
      outer loop
         vertex -3.038843e+000 1.723413e+001 -7.000000e+001
         vertex 5.985353e+000 -1.644462e+001 -7.000000e+001
         vertex -5.985353e+000 1.644462e+001 -7.000000e+001
      endloop
   endfacet
   facet normal 0.000000e+000 0.000000e+000 -1.000000e+000
      outer loop
         vertex -5.985353e+000 1.644462e+001 -7.000000e+001
         vertex 5.985353e+000 -1.644462e+001 -7.000000e+001
         vertex 3.038843e+000 -1.723413e+001 -7.000000e+001
      endloop
   endfacet
   facet normal 0.000000e+000 0.000000e+000 -1.000000e+000
      outer loop
         vertex -5.985353e+000 1.644462e+001 -7.000000e+001
         vertex 3.038843e+000 -1.723413e+001 -7.000000e+001
         vertex 3.214698e-015 -1.750000e+001 -7.000000e+001
      endloop
   endfacet
   facet normal 0.000000e+000 0.000000e+000 -1.000000e+000
      outer loop
         vertex -3.038843e+000 1.723413e+001 -7.000000e+001
         vertex -1.071566e-015 1.750000e+001 -7.000000e+001
         vertex 5.985353e+000 -1.644462e+001 -7.000000e+001
      endloop
   endfacet
   facet normal 0.000000e+000 0.000000e+000 -1.000000e+000
      outer loop
         vertex 5.985353e+000 -1.644462e+001 -7.000000e+001
         vertex -1.071566e-015 1.750000e+001 -7.000000e+001
         vertex 3.038843e+000 1.723413e+001 -7.000000e+001
      endloop
   endfacet
   facet normal 0.000000e+000 0.000000e+000 -1.000000e+000
      outer loop
         vertex 5.985353e+000 -1.644462e+001 -7.000000e+001
         vertex 3.038843e+000 1.723413e+001 -7.000000e+001
         vertex 5.985353e+000 1.644462e+001 -7.000000e+001
      endloop
   endfacet
   facet normal 0.000000e+000 0.000000e+000 -1.000000e+000
      outer loop
         vertex -8.750000e+000 -1.515545e+001 -7.000000e+001
         vertex -1.124878e+001 -1.340578e+001 -7.000000e+001
         vertex -5.985353e+000 1.644462e+001 -7.000000e+001
      endloop
   endfacet
   facet normal 0.000000e+000 0.000000e+000 -1.000000e+000
      outer loop
         vertex -5.985353e+000 1.644462e+001 -7.000000e+001
         vertex -1.124878e+001 -1.340578e+001 -7.000000e+001
         vertex -1.340578e+001 -1.124878e+001 -7.000000e+001
      endloop
   endfacet
   facet normal 0.000000e+000 0.000000e+000 -1.000000e+000
      outer loop
         vertex -5.985353e+000 1.644462e+001 -7.000000e+001
         vertex -1.340578e+001 -1.124878e+001 -7.000000e+001
         vertex -1.515545e+001 -8.750000e+000 -7.000000e+001
      endloop
   endfacet
   facet normal 0.000000e+000 0.000000e+000 -1.000000e+000
      outer loop
         vertex -1.515545e+001 -8.750000e+000 -7.000000e+001
         vertex -1.644462e+001 -5.985353e+000 -7.000000e+001
         vertex -5.985353e+000 1.644462e+001 -7.000000e+001
      endloop
   endfacet
   facet normal 0.000000e+000 0.000000e+000 -1.000000e+000
      outer loop
         vertex -5.985353e+000 1.644462e+001 -7.000000e+001
         vertex -1.644462e+001 -5.985353e+000 -7.000000e+001
         vertex -1.723413e+001 -3.038843e+000 -7.000000e+001
      endloop
   endfacet
   facet normal 0.000000e+000 0.000000e+000 -1.000000e+000
      outer loop
         vertex -5.985353e+000 1.644462e+001 -7.000000e+001
         vertex -1.723413e+001 -3.038843e+000 -7.000000e+001
         vertex -1.750000e+001 0.000000e+000 -7.000000e+001
      endloop
   endfacet
   facet normal 0.000000e+000 0.000000e+000 -1.000000e+000
      outer loop
         vertex 5.985353e+000 1.644462e+001 -7.000000e+001
         vertex 8.750000e+000 1.515545e+001 -7.000000e+001
         vertex 5.985353e+000 -1.644462e+001 -7.000000e+001
      endloop
   endfacet
   facet normal 0.000000e+000 0.000000e+000 -1.000000e+000
      outer loop
         vertex 5.985353e+000 -1.644462e+001 -7.000000e+001
         vertex 8.750000e+000 1.515545e+001 -7.000000e+001
         vertex 1.124878e+001 1.340578e+001 -7.000000e+001
      endloop
   endfacet
   facet normal 0.000000e+000 0.000000e+000 -1.000000e+000
      outer loop
         vertex 5.985353e+000 -1.644462e+001 -7.000000e+001
         vertex 1.124878e+001 1.340578e+001 -7.000000e+001
         vertex 1.340578e+001 1.124878e+001 -7.000000e+001
      endloop
   endfacet
   facet normal 0.000000e+000 0.000000e+000 -1.000000e+000
      outer loop
         vertex 1.723413e+001 3.038843e+000 -7.000000e+001
         vertex 8.750000e+000 -1.515545e+001 -7.000000e+001
         vertex 1.644462e+001 5.985353e+000 -7.000000e+001
      endloop
   endfacet
   facet normal 0.000000e+000 0.000000e+000 -1.000000e+000
      outer loop
         vertex 1.644462e+001 5.985353e+000 -7.000000e+001
         vertex 8.750000e+000 -1.515545e+001 -7.000000e+001
         vertex 5.985353e+000 -1.644462e+001 -7.000000e+001
      endloop
   endfacet
   facet normal 0.000000e+000 0.000000e+000 -1.000000e+000
      outer loop
         vertex 1.644462e+001 5.985353e+000 -7.000000e+001
         vertex 5.985353e+000 -1.644462e+001 -7.000000e+001
         vertex 1.515545e+001 8.750000e+000 -7.000000e+001
      endloop
   endfacet
   facet normal 0.000000e+000 0.000000e+000 -1.000000e+000
      outer loop
         vertex 1.515545e+001 8.750000e+000 -7.000000e+001
         vertex 5.985353e+000 -1.644462e+001 -7.000000e+001
         vertex 1.340578e+001 1.124878e+001 -7.000000e+001
      endloop
   endfacet
   facet normal 0.000000e+000 0.000000e+000 -1.000000e+000
      outer loop
         vertex 1.340578e+001 -1.124878e+001 -7.000000e+001
         vertex 1.723413e+001 -3.038843e+000 -7.000000e+001
         vertex 1.515545e+001 -8.750000e+000 -7.000000e+001
      endloop
   endfacet
   facet normal 0.000000e+000 0.000000e+000 -1.000000e+000
      outer loop
         vertex 1.515545e+001 -8.750000e+000 -7.000000e+001
         vertex 1.723413e+001 -3.038843e+000 -7.000000e+001
         vertex 1.644462e+001 -5.985353e+000 -7.000000e+001
      endloop
   endfacet
   facet normal 0.000000e+000 0.000000e+000 -1.000000e+000
      outer loop
         vertex 1.723413e+001 3.038843e+000 -7.000000e+001
         vertex 1.750000e+001 6.429396e-015 -7.000000e+001
         vertex 8.750000e+000 -1.515545e+001 -7.000000e+001
      endloop
   endfacet
   facet normal 0.000000e+000 0.000000e+000 -1.000000e+000
      outer loop
         vertex 8.750000e+000 -1.515545e+001 -7.000000e+001
         vertex 1.750000e+001 6.429396e-015 -7.000000e+001
         vertex 1.723413e+001 -3.038843e+000 -7.000000e+001
      endloop
   endfacet
   facet normal 0.000000e+000 0.000000e+000 -1.000000e+000
      outer loop
         vertex 8.750000e+000 -1.515545e+001 -7.000000e+001
         vertex 1.723413e+001 -3.038843e+000 -7.000000e+001
         vertex 1.124878e+001 -1.340578e+001 -7.000000e+001
      endloop
   endfacet
   facet normal 0.000000e+000 0.000000e+000 -1.000000e+000
      outer loop
         vertex 1.124878e+001 -1.340578e+001 -7.000000e+001
         vertex 1.723413e+001 -3.038843e+000 -7.000000e+001
         vertex 1.340578e+001 -1.124878e+001 -7.000000e+001
      endloop
   endfacet
   facet normal 0.000000e+000 0.000000e+000 -1.000000e+000
      outer loop
         vertex -1.750000e+001 0.000000e+000 -7.000000e+001
         vertex -1.723413e+001 3.038843e+000 -7.000000e+001
         vertex -5.985353e+000 1.644462e+001 -7.000000e+001
      endloop
   endfacet
   facet normal 0.000000e+000 0.000000e+000 -1.000000e+000
      outer loop
         vertex -5.985353e+000 1.644462e+001 -7.000000e+001
         vertex -1.723413e+001 3.038843e+000 -7.000000e+001
         vertex -1.644462e+001 5.985353e+000 -7.000000e+001
      endloop
   endfacet
   facet normal 0.000000e+000 0.000000e+000 -1.000000e+000
      outer loop
         vertex -5.985353e+000 1.644462e+001 -7.000000e+001
         vertex -1.644462e+001 5.985353e+000 -7.000000e+001
         vertex -1.515545e+001 8.750000e+000 -7.000000e+001
      endloop
   endfacet
   facet normal 0.000000e+000 0.000000e+000 -1.000000e+000
      outer loop
         vertex -1.515545e+001 8.750000e+000 -7.000000e+001
         vertex -1.340578e+001 1.124878e+001 -7.000000e+001
         vertex -5.985353e+000 1.644462e+001 -7.000000e+001
      endloop
   endfacet
   facet normal 0.000000e+000 0.000000e+000 -1.000000e+000
      outer loop
         vertex -5.985353e+000 1.644462e+001 -7.000000e+001
         vertex -1.340578e+001 1.124878e+001 -7.000000e+001
         vertex -1.124878e+001 1.340578e+001 -7.000000e+001
      endloop
   endfacet
   facet normal 0.000000e+000 0.000000e+000 -1.000000e+000
      outer loop
         vertex -5.985353e+000 1.644462e+001 -7.000000e+001
         vertex -1.124878e+001 1.340578e+001 -7.000000e+001
         vertex -8.750000e+000 1.515545e+001 -7.000000e+001
      endloop
   endfacet
endsolid