solid old_triangle
   facet normal -1.000000e+000 -5.855843e-017 0.000000e+000
      outer loop
         vertex 7.703720e-031 0.000000e+000 3.500000e+001
         vertex -5.680168e-015 9.700000e+001 3.500000e+001
         vertex 7.703720e-031 0.000000e+000 0.000000e+000
      endloop
   endfacet
   facet normal -1.000000e+000 -5.855843e-017 0.000000e+000
      outer loop
         vertex 7.703720e-031 0.000000e+000 0.000000e+000
         vertex -5.680168e-015 9.700000e+001 3.500000e+001
         vertex -5.680168e-015 9.700000e+001 0.000000e+000
      endloop
   endfacet
   facet normal 0.000000e+000 -1.000000e+000 0.000000e+000
      outer loop
         vertex 9.700000e+001 0.000000e+000 3.500000e+001
         vertex 0.000000e+000 0.000000e+000 3.500000e+001
         vertex 9.700000e+001 0.000000e+000 0.000000e+000
      endloop
   endfacet
   facet normal 0.000000e+000 -1.000000e+000 0.000000e+000
      outer loop
         vertex 9.700000e+001 0.000000e+000 0.000000e+000
         vertex 0.000000e+000 0.000000e+000 3.500000e+001
         vertex 0.000000e+000 0.000000e+000 0.000000e+000
      endloop
   endfacet
   facet normal 7.071068e-001 7.071068e-001 0.000000e+000
      outer loop
         vertex -1.387779e-014 9.700000e+001 3.500000e+001
         vertex 9.700000e+001 0.000000e+000 3.500000e+001
         vertex -1.387779e-014 9.700000e+001 -1.387779e-014
      endloop
   endfacet
   facet normal 7.071068e-001 7.071068e-001 0.000000e+000
      outer loop
         vertex -1.387779e-014 9.700000e+001 -1.387779e-014
         vertex 9.700000e+001 0.000000e+000 3.500000e+001
         vertex 9.700000e+001 0.000000e+000 -1.387779e-014
      endloop
   endfacet
   facet normal 0.000000e+000 0.000000e+000 1.000000e+000
      outer loop
         vertex 0.000000e+000 0.000000e+000 3.500000e+001
         vertex 9.700000e+001 0.000000e+000 3.500000e+001
         vertex -5.680168e-015 9.700000e+001 3.500000e+001
      endloop
   endfacet
   facet normal 0.000000e+000 0.000000e+000 -1.000000e+000
      outer loop
         vertex -5.680168e-015 9.700000e+001 0.000000e+000
         vertex 9.700000e+001 0.000000e+000 0.000000e+000
         vertex 0.000000e+000 0.000000e+000 0.000000e+000
      endloop
   endfacet
endsolid