solid small_cube
   facet normal -1.000000e+000 0.000000e+000 0.000000e+000
      outer loop
         vertex 0.000000e+000 0.000000e+000 2.900000e+001
         vertex 0.000000e+000 2.900000e+001 2.900000e+001
         vertex 0.000000e+000 0.000000e+000 0.000000e+000
      endloop
   endfacet
   facet normal -1.000000e+000 0.000000e+000 0.000000e+000
      outer loop
         vertex 0.000000e+000 0.000000e+000 0.000000e+000
         vertex 0.000000e+000 2.900000e+001 2.900000e+001
         vertex 0.000000e+000 2.900000e+001 0.000000e+000
      endloop
   endfacet
   facet normal 0.000000e+000 -1.000000e+000 0.000000e+000
      outer loop
         vertex 2.900000e+001 0.000000e+000 2.900000e+001
         vertex 0.000000e+000 0.000000e+000 2.900000e+001
         vertex 2.900000e+001 0.000000e+000 0.000000e+000
      endloop
   endfacet
   facet normal 0.000000e+000 -1.000000e+000 0.000000e+000
      outer loop
         vertex 2.900000e+001 0.000000e+000 0.000000e+000
         vertex 0.000000e+000 0.000000e+000 2.900000e+001
         vertex 0.000000e+000 0.000000e+000 0.000000e+000
      endloop
   endfacet
   facet normal 1.000000e+000 -1.196361e-016 0.000000e+000
      outer loop
         vertex 2.900000e+001 2.900000e+001 2.900000e+001
         vertex 2.900000e+001 0.000000e+000 2.900000e+001
         vertex 2.900000e+001 2.900000e+001 6.938894e-015
      endloop
   endfacet
   facet normal 1.000000e+000 -1.196361e-016 0.000000e+000
      outer loop
         vertex 2.900000e+001 2.900000e+001 6.938894e-015
         vertex 2.900000e+001 0.000000e+000 2.900000e+001
         vertex 2.900000e+001 0.000000e+000 6.938894e-015
      endloop
   endfacet
   facet normal -1.196361e-016 1.000000e+000 0.000000e+000
      outer loop
         vertex 0.000000e+000 2.900000e+001 2.900000e+001
         vertex 2.900000e+001 2.900000e+001 2.900000e+001
         vertex 0.000000e+000 2.900000e+001 6.938894e-015
      endloop
   endfacet
   facet normal -1.196361e-016 1.000000e+000 0.000000e+000
      outer loop
         vertex 0.000000e+000 2.900000e+001 6.938894e-015
         vertex 2.900000e+001 2.900000e+001 2.900000e+001
         vertex 2.900000e+001 2.900000e+001 6.938894e-015
      endloop
   endfacet
   facet normal 0.000000e+000 0.000000e+000 1.000000e+000
      outer loop
         vertex 2.900000e+001 0.000000e+000 2.900000e+001
         vertex 2.900000e+001 2.900000e+001 2.900000e+001
         vertex 0.000000e+000 0.000000e+000 2.900000e+001
      endloop
   endfacet
   facet normal 0.000000e+000 0.000000e+000 1.000000e+000
      outer loop
         vertex 0.000000e+000 0.000000e+000 2.900000e+001
         vertex 2.900000e+001 2.900000e+001 2.900000e+001
         vertex 0.000000e+000 2.900000e+001 2.900000e+001
      endloop
   endfacet
   facet normal 0.000000e+000 0.000000e+000 -1.000000e+000
      outer loop
         vertex 2.900000e+001 2.900000e+001 0.000000e+000
         vertex 2.900000e+001 0.000000e+000 0.000000e+000
         vertex 0.000000e+000 2.900000e+001 0.000000e+000
      endloop
   endfacet
   facet normal 0.000000e+000 0.000000e+000 -1.000000e+000
      outer loop
         vertex 0.000000e+000 2.900000e+001 0.000000e+000
         vertex 2.900000e+001 0.000000e+000 0.000000e+000
         vertex 0.000000e+000 0.000000e+000 0.000000e+000
      endloop
   endfacet
endsolid