solid small_triangle
   facet normal -1.000000e+000 -1.336627e-017 0.000000e+000
      outer loop
         vertex 0.000000e+000 0.000000e+000 3.500000e+001
         vertex -9.222724e-016 6.900000e+001 3.500000e+001
         vertex 0.000000e+000 0.000000e+000 0.000000e+000
      endloop
   endfacet
   facet normal -1.000000e+000 -1.336627e-017 0.000000e+000
      outer loop
         vertex 0.000000e+000 0.000000e+000 0.000000e+000
         vertex -9.222724e-016 6.900000e+001 3.500000e+001
         vertex -9.222724e-016 6.900000e+001 0.000000e+000
      endloop
   endfacet
   facet normal 0.000000e+000 -1.000000e+000 0.000000e+000
      outer loop
         vertex 6.900000e+001 0.000000e+000 3.500000e+001
         vertex 0.000000e+000 0.000000e+000 3.500000e+001
         vertex 6.900000e+001 0.000000e+000 0.000000e+000
      endloop
   endfacet
   facet normal 0.000000e+000 -1.000000e+000 0.000000e+000
      outer loop
         vertex 6.900000e+001 0.000000e+000 0.000000e+000
         vertex 0.000000e+000 0.000000e+000 3.500000e+001
         vertex 0.000000e+000 0.000000e+000 0.000000e+000
      endloop
   endfacet
   facet normal 7.071068e-001 7.071068e-001 0.000000e+000
      outer loop
         vertex -1.387779e-014 6.900000e+001 3.500000e+001
         vertex 6.900000e+001 0.000000e+000 3.500000e+001
         vertex -1.387779e-014 6.900000e+001 -1.387779e-014
      endloop
   endfacet
   facet normal 7.071068e-001 7.071068e-001 0.000000e+000
      outer loop
         vertex -1.387779e-014 6.900000e+001 -1.387779e-014
         vertex 6.900000e+001 0.000000e+000 3.500000e+001
         vertex 6.900000e+001 0.000000e+000 -1.387779e-014
      endloop
   endfacet
   facet normal 0.000000e+000 0.000000e+000 1.000000e+000
      outer loop
         vertex 0.000000e+000 0.000000e+000 3.500000e+001
         vertex 6.900000e+001 0.000000e+000 3.500000e+001
         vertex -9.222724e-016 6.900000e+001 3.500000e+001
      endloop
   endfacet
   facet normal 0.000000e+000 0.000000e+000 -1.000000e+000
      outer loop
         vertex -9.222724e-016 6.900000e+001 0.000000e+000
         vertex 6.900000e+001 0.000000e+000 0.000000e+000
         vertex 0.000000e+000 0.000000e+000 0.000000e+000
      endloop
   endfacet
endsolid